<svg width="64" height="80" viewBox="0 0 64 80" fill="none" xmlns="http://www.w3.org/2000/svg">
<path d="M36.0005 76.0005L36.0005 13.6565L57.1725 34.8285C58.7345 36.3905 61.2665 36.3905 62.8285 34.8285C64.3905 33.2665 64.3905 30.7335 62.8285 29.1715L34.8285 1.17149C33.2665 -0.390511 30.7335 -0.390511 29.1725 1.17149L1.17249 29.1715C0.391492 29.9525 0.00049544 30.9765 0.000495529 32.0005C0.000495618 33.0235 0.391493 34.0475 1.17249 34.8285C2.73449 36.3905 5.2675 36.3905 6.8285 34.8285L28.0005 13.6565L28.0005 76.0005C28.0005 78.2085 29.7915 80.0005 32.0005 80.0005C34.2095 80.0005 36.0005 78.2095 36.0005 76.0005Z" fill="black"/>
</svg>
